<svg width="24" height="24" viewBox="0 0 24 24" fill="none" xmlns="http://www.w3.org/2000/svg">
<g clip-path="url(#clip0_559_13253)">
<path d="M11.9996 0C8.71296 0 5.73542 1.32121 3.56817 3.46189C3.55465 3.47493 3.54065 3.48845 3.52713 3.50245C3.49477 3.53433 3.4629 3.56668 3.43151 3.59903C3.39047 3.64056 3.3499 3.68209 3.3103 3.72459C3.2823 3.75356 3.25525 3.78254 3.22773 3.81151C2.29043 4.82463 1.58684 6.07871 1.03586 7.36515C0.41437 8.81481 0.310547 10.3813 0.310547 12.0584C0.310547 18.6857 5.37228 23.6562 11.9996 23.6562C13.7945 23.6562 15.4054 23.4872 16.9343 22.7812C18.3134 22.1442 19.6366 21.3643 20.6787 20.2865C20.7173 20.246 20.7559 20.2054 20.7936 20.1643C20.8636 20.0895 20.9322 20.0137 20.9998 19.9369C21.0307 19.9017 21.0621 19.8659 21.0925 19.8302L21.1027 19.8186L21.1036 19.8176C22.9087 17.718 23.9996 14.9862 23.9996 12C23.9996 5.37272 18.6268 0 11.9996 0ZM11.986 16.0853L8.03256 11.8281L12.2637 7.59694L16.3688 11.7025L11.986 16.0853Z" fill="#FFBF54"/>
<path d="M21.1041 19.8166C18.9035 22.377 15.641 23.999 12 23.999C5.37272 23.999 0 18.6263 0 11.999C0 8.65639 1.36708 5.63297 3.57199 3.45703C1.76692 5.55715 0.676056 8.28842 0.676056 11.2747C0.676056 17.9019 6.04877 23.2747 12.6761 23.2747C15.9607 23.2747 18.9368 21.9549 21.1041 19.8166Z" fill="#FFA442"/>
<path d="M19.1193 4.88001C15.1938 0.954058 8.80602 0.954058 4.88055 4.88001C4.79604 4.96452 4.71395 5.04951 4.6333 5.13595C4.6333 5.13595 4.51596 5.2813 4.45222 5.35325C0.981151 9.29128 1.2028 15.1821 4.9752 18.9541C8.90067 22.88 15.1238 23.0341 19.0492 19.1081C19.281 18.8768 19.5611 18.6402 19.7654 18.3924C19.8108 18.3374 19.9073 18.2326 19.9073 18.2326C23.0249 14.2844 22.7622 8.52251 19.1193 4.88001ZM11.9864 16.0847L8.0329 11.8275L12.264 7.59631L16.3692 11.7019L11.9864 16.0847Z" fill="#FFA442"/>
<path d="M19.9316 18.2008C19.6824 18.5191 19.4115 18.8257 19.1188 19.1184C15.1934 23.0443 8.8056 23.0443 4.88013 19.1184C1.03337 15.2721 0.955623 9.0625 4.64689 5.12109C1.55538 9.0683 1.82629 14.8095 5.45961 18.4423C9.38508 22.3683 15.7728 22.3683 19.6983 18.4423C19.7775 18.3631 19.8557 18.2825 19.9316 18.2008Z" fill="#FF8A3C"/>
<path d="M17.36 11.2137L12.784 6.63773C12.3504 6.20409 11.6473 6.20409 11.2137 6.63773L6.63773 11.2137C6.20409 11.6473 6.20409 12.3504 6.63773 12.784L11.2137 17.36C11.6473 17.7936 12.3504 17.7936 12.784 17.36L17.36 12.784C17.7936 12.3504 17.7936 11.6473 17.36 11.2137ZM15.3453 12.0669L12.0669 15.3453C12.0293 15.383 11.9684 15.383 11.9308 15.3453L8.65238 12.0669C8.61471 12.0293 8.61471 11.9684 8.65238 11.9308L11.9308 8.65238C11.9684 8.61471 12.0293 8.61471 12.0669 8.65238L15.3453 11.9308C15.383 11.9684 15.383 12.0293 15.3453 12.0669Z" fill="#FFBF54"/>
<path d="M6.80588 8.85666C6.523 9.13954 6.06439 9.13954 5.78151 8.85666L4.95044 8.02559C4.66756 7.74271 4.66756 7.2841 4.95044 7.00122C5.23332 6.71834 5.69193 6.71834 5.97481 7.00122L6.80588 7.83229C7.08871 8.11517 7.08871 8.57378 6.80588 8.85666Z" fill="#FFBF54"/>
<path d="M8.85471 6.80783C8.57183 7.09071 8.11322 7.09071 7.83034 6.80783L6.99927 5.97677C6.71639 5.69388 6.71639 5.23528 6.99927 4.9524C7.28215 4.66951 7.74076 4.66951 8.02364 4.9524L8.85471 5.78346C9.13759 6.06629 9.13759 6.52495 8.85471 6.80783Z" fill="#FFBF54"/>
<path d="M8.85471 17.1945C9.13759 17.4774 9.13759 17.936 8.85471 18.2189L8.02364 19.05C7.74076 19.3329 7.28215 19.3329 6.99927 19.05C6.71639 18.7671 6.71639 18.3085 6.99927 18.0256L7.83034 17.1945C8.11322 16.9117 8.57183 16.9117 8.85471 17.1945Z" fill="#FFBF54"/>
<path d="M6.80588 15.1458C7.08876 15.4286 7.08876 15.8872 6.80588 16.1701L5.97481 17.0012C5.69193 17.2841 5.23332 17.2841 4.95044 17.0012C4.66756 16.7183 4.66756 16.2597 4.95044 15.9768L5.78151 15.1458C6.06434 14.8629 6.523 14.8629 6.80588 15.1458Z" fill="#FFBF54"/>
<path d="M17.1926 15.1458C17.4755 14.8629 17.9341 14.8629 18.217 15.1458L19.048 15.9768C19.3309 16.2597 19.3309 16.7183 19.048 17.0012C18.7651 17.2841 18.3065 17.2841 18.0237 17.0012L17.1926 16.1701C16.9098 15.8872 16.9098 15.4286 17.1926 15.1458Z" fill="#FFBF54"/>
<path d="M15.1438 17.1946C15.4267 16.9117 15.8853 16.9117 16.1682 17.1946L16.9992 18.0257C17.2821 18.3085 17.2821 18.7671 16.9992 19.05C16.7164 19.3329 16.2578 19.3329 15.9749 19.05L15.1438 18.219C14.8609 17.9361 14.8609 17.4775 15.1438 17.1946Z" fill="#FFBF54"/>
<path d="M15.1438 6.80783C14.8609 6.52495 14.8609 6.06634 15.1438 5.78346L15.9749 4.9524C16.2578 4.66951 16.7164 4.66951 16.9992 4.9524C17.2821 5.23528 17.2821 5.69388 16.9992 5.97677L16.1682 6.80783C15.8853 7.09066 15.4267 7.09066 15.1438 6.80783Z" fill="#FFBF54"/>
<path d="M17.1926 8.85666C16.9097 8.57378 16.9097 8.11517 17.1926 7.83229L18.0237 7.00122C18.3066 6.71834 18.7652 6.71834 19.0481 7.00122C19.3309 7.2841 19.3309 7.74271 19.0481 8.02559L18.217 8.85666C17.9342 9.13954 17.4755 9.13954 17.1926 8.85666Z" fill="#FFBF54"/>
<g clip-path="url(#clip1_559_13253)">
<path d="M24.0019 12C24.0019 18.6274 18.6294 24 12.002 24C8.50824 24 5.36326 22.5071 3.17044 20.1242C2.59444 19.4988 2.08456 18.8116 1.65061 18.0744C0.602933 16.2926 0.00195312 14.2163 0.00195312 12C0.00195312 5.37257 5.37452 0 12.002 0C14.2188 0 16.295 0.600979 18.0764 1.64914C18.8135 2.08261 19.5002 2.59249 20.1257 3.16898C22.5086 5.36082 24.0019 8.50628 24.0019 12Z" fill="#F0CD00"/>
<path d="M24.0011 12.0014C24.0011 18.4795 18.8686 23.7585 12.4478 23.9931C6.0271 23.7585 0.894531 18.4795 0.894531 12.0014C0.894531 5.5234 6.0271 0.244378 12.4478 0.00976562C18.8686 0.244378 24.0011 5.5234 24.0011 12.0014Z" fill="#FFDE50"/>
<path d="M20.1255 3.17023L3.17023 20.1255C2.59423 19.5 2.08435 18.8128 1.65039 18.0757L18.0762 1.65039C18.8133 2.08386 19.5 2.59374 20.1255 3.17023Z" fill="#FFEA94"/>
<path d="M23.1742 7.61291L7.61438 23.1727C6.51282 22.7398 5.49062 22.1486 4.57617 21.4271L21.4291 4.57422C22.1505 5.48867 22.7417 6.51087 23.1742 7.61291Z" fill="#FFEA94"/>
<path d="M21.3253 12.0005C21.3253 17.1502 17.1502 21.3253 12.0005 21.3253C10.2069 21.3253 8.53178 20.8188 7.1099 19.9411C6.49031 19.559 5.91921 19.106 5.40688 18.5937C5.03023 18.2175 4.68541 17.8085 4.37733 17.3721C3.95317 16.7711 3.59807 16.1177 3.32427 15.4237C2.91872 14.3976 2.69048 13.2818 2.67676 12.1151C2.67578 12.0769 2.67578 12.0387 2.67578 12.0005C2.67578 6.8508 6.85031 2.67578 12.0005 2.67578C12.0387 2.67578 12.0774 2.67578 12.1156 2.67676C13.2823 2.69048 14.3976 2.91921 15.4237 3.32427C16.1177 3.59856 16.7711 3.95317 17.3721 4.37733C17.8085 4.6859 18.217 5.03023 18.5937 5.40688C19.106 5.91872 19.559 6.49031 19.9411 7.1099C20.8188 8.53178 21.3253 10.2069 21.3253 12.0005Z" fill="#FAA300"/>
<path d="M18.5937 5.40688L5.40688 18.5937C5.03023 18.2175 4.68541 17.8085 4.37733 17.3721C3.95317 16.7711 3.59807 16.1177 3.32427 15.4237C2.91872 14.3976 2.69048 13.2818 2.67676 12.1151C2.67578 12.0769 2.67578 12.0387 2.67578 12.0005C2.67578 6.8508 6.85031 2.67578 12.0005 2.67578C12.0387 2.67578 12.0774 2.67578 12.1156 2.67676C13.2823 2.69048 14.3976 2.91921 15.4237 3.32427C16.1177 3.59856 16.7711 3.95317 17.3721 4.37733C17.8085 4.6859 18.217 5.03023 18.5937 5.40688Z" fill="#FFBD00"/>
<path d="M21.3259 12.0005C21.3259 17.1502 17.1509 21.3253 12.0011 21.3253C11.8243 21.3253 11.649 21.3204 11.4746 21.3106C16.3794 21.0377 20.2723 16.9734 20.2723 12.0005C20.2723 7.02762 16.3794 2.96329 11.4746 2.69048C11.649 2.68068 11.8243 2.67578 12.0011 2.67578C17.1509 2.67578 21.3259 6.8508 21.3259 12.0005Z" fill="#F68E00"/>
</g>
<path d="M10.3916 11.9805C10.3916 12.3782 10.3916 12.7913 10.3916 13.2044C9.59606 13.2044 9.19829 13.2044 8.41041 13.2044V13.9616H10.231C10.231 14.3671 10.231 14.7725 10.231 15.1779H8.41041C8.41041 15.4915 8.41041 15.7975 8.41041 16.1188C9.19829 16.1188 9.65725 16.1188 10.4604 16.1188C10.4604 16.5165 10.4604 16.9296 10.4604 17.335C9.20594 17.335 8.28802 17.335 7.04883 17.335C7.04883 15.5451 7.04883 13.7551 7.04883 11.9805C8.28802 11.9805 9.1371 11.9805 10.3916 11.9805Z" fill="#F68E00"/>
<path d="M14.9317 17.335C14.4728 17.335 14.0138 17.335 13.5625 17.335C13.5625 15.5527 13.5625 13.7704 13.5625 11.9805C14.3351 11.9805 15.1306 11.9805 15.9185 11.9805C18.481 11.9881 18.481 15.9658 15.9185 15.9658H14.9317V17.335ZM15.9108 14.7342C16.6605 14.7342 16.7064 13.212 15.9108 13.2044C15.5896 13.1967 15.2454 13.2044 14.9317 13.2044C14.9317 13.6404 14.9317 14.2982 14.9317 14.7342H15.9108Z" fill="#F68E00"/>
<path d="M15.7822 7.16797C16.0142 7.16145 16.2333 7.29137 16.3369 7.50586L16.9951 8.86719C17.1384 9.16423 17.0137 9.52144 16.7168 9.66504C16.4196 9.80864 16.0625 9.68389 15.9189 9.38672L15.7734 9.08594L12.4902 14.4971L14.2266 17.1279V17.335H12.7881L11.7705 15.6523H11.7246L10.7002 17.335H9.26953V17.1279L10.998 14.4971L9.45312 12.1865V11.9805H10.8525L11.7246 13.3721H11.7637L14.5625 8.62207L14.4336 8.64844C14.1101 8.71321 13.7954 8.50322 13.7305 8.17969C13.6661 7.85653 13.8752 7.5426 14.1982 7.47754L15.6816 7.17969L15.7822 7.16797Z" fill="#F68E00"/>
<path d="M12.6645 11.3819C12.7376 11.4126 12.8296 11.4295 12.8929 11.4787C12.9954 11.5584 12.9872 11.7242 12.8399 11.7374C12.7269 11.7475 12.4815 11.7492 12.3703 11.7371C12.2356 11.7224 12.2225 11.5974 12.2253 11.4888C12.2299 11.3088 12.2514 11.1046 12.2648 10.9225C12.2715 10.832 12.287 10.7411 12.2927 10.6505C12.2388 10.6241 11.8171 10.5189 11.7963 10.5337C11.7627 10.629 11.7212 10.7217 11.6795 10.8136C11.5025 11.2038 11.3263 11.5945 11.1417 11.9809V11.9968C11.2207 12.1082 11.2654 12.41 11.0504 12.3726C10.9693 12.3585 10.8142 12.1799 10.7632 12.1107C10.7453 12.0863 10.7138 12.0475 10.7164 12.0173C10.7997 11.7411 10.888 11.4662 10.9642 11.1878C11.1199 10.6186 11.2081 10.0304 11.42 9.47821L11.3339 9.54495C11.1482 9.71677 10.9952 9.91778 10.8292 10.108C10.8523 10.1951 10.8622 10.2687 10.8235 10.3536C10.7469 10.5219 10.4708 10.4845 10.4287 10.3144C10.4003 10.1995 10.466 10.1127 10.5192 10.0159C10.6851 9.71433 11.0406 9.16559 11.3268 8.98693C11.6618 8.77765 11.8991 8.8865 12.2519 8.85541C12.6454 8.8207 12.8995 8.42874 13.1079 8.13486C13.2208 7.97556 13.3388 7.75628 13.458 7.61359C13.4936 7.57101 13.5269 7.54732 13.5781 7.58588C13.6747 7.65853 13.5256 7.78871 13.5015 7.86757C13.5708 7.94029 13.6765 8.03207 13.6428 8.14595C13.6248 8.20695 13.5172 8.3439 13.4754 8.40246C13.246 8.72397 12.996 9.04517 12.6564 9.25468C12.5911 9.54369 12.5173 9.83121 12.423 10.112C12.5349 10.1963 12.8412 10.2589 12.8648 10.4209C12.8974 10.6439 12.704 11.07 12.667 11.3117C12.6634 11.3352 12.6609 11.3584 12.6645 11.3821V11.3819Z" fill="#F68E00"/>
<path d="M12.1544 7.63037C12.4311 7.60919 12.7029 7.82091 12.7268 8.10425C12.7719 8.63804 12.1088 8.90288 11.7776 8.4929C11.5048 8.15541 11.7288 7.66287 12.1545 7.63029L12.1544 7.63037Z" fill="#F68E00"/>
<path d="M14.3346 6.8921C14.0949 6.94235 13.9075 7.12971 13.8573 7.36942C13.8511 7.39884 13.8252 7.41992 13.7951 7.41992C13.765 7.41992 13.7391 7.39884 13.7329 7.36941C13.6826 7.12971 13.4953 6.94236 13.2556 6.89212C13.2262 6.88595 13.2051 6.85999 13.2051 6.82992C13.2051 6.79985 13.2262 6.77389 13.2556 6.76772C13.4953 6.71747 13.6826 6.53012 13.7329 6.29042C13.7391 6.26099 13.765 6.23991 13.7951 6.23991C13.8252 6.23991 13.8511 6.26099 13.8573 6.29042C13.9075 6.53012 14.0949 6.71747 14.3346 6.76771C14.364 6.77388 14.3851 6.79983 14.3851 6.82991C14.3851 6.85998 14.364 6.88594 14.3346 6.8921Z" fill="#F68E00"/>
<path d="M14.4274 6.08202C14.3145 6.10569 14.2262 6.19396 14.2025 6.30691C14.1964 6.33634 14.1704 6.35742 14.1403 6.35742C14.1103 6.35742 14.0843 6.33635 14.0781 6.30691C14.0545 6.19397 13.9662 6.1057 13.8532 6.08203C13.8238 6.07586 13.8027 6.0499 13.8027 6.01983C13.8027 5.98976 13.8238 5.9638 13.8532 5.95763C13.9662 5.93396 14.0545 5.84568 14.0781 5.73274C14.0843 5.70331 14.1103 5.68223 14.1403 5.68223C14.1704 5.68223 14.1964 5.7033 14.2025 5.73274C14.2262 5.84568 14.3145 5.93396 14.4274 5.95763C14.4568 5.9638 14.4779 5.98975 14.4779 6.01983C14.4779 6.0499 14.4569 6.07585 14.4274 6.08202Z" fill="#F68E00"/>
<path d="M15.0621 6.51857C14.9095 6.55057 14.7902 6.66988 14.7582 6.82253C14.752 6.85196 14.726 6.87305 14.696 6.87305C14.6659 6.87305 14.6399 6.85197 14.6338 6.82254C14.6018 6.66988 14.4825 6.55057 14.3298 6.51857C14.3004 6.51241 14.2793 6.48645 14.2793 6.45638C14.2793 6.42631 14.3004 6.40035 14.3298 6.39418C14.4825 6.36218 14.6018 6.24287 14.6338 6.09021C14.6399 6.06078 14.6659 6.0397 14.696 6.0397C14.726 6.0397 14.752 6.06078 14.7582 6.09021C14.7902 6.24287 14.9095 6.36218 15.0621 6.39417C15.0916 6.40035 15.1126 6.4263 15.1126 6.45637C15.1126 6.48644 15.0916 6.5124 15.0621 6.51857Z" fill="#F68E00"/>
<path d="M10.6924 11.6055C10.6924 12.0032 10.6924 12.4163 10.6924 12.8294C9.89684 12.8294 9.49907 12.8294 8.71119 12.8294V13.5866H10.5317C10.5317 13.9921 10.5317 14.3975 10.5317 14.8029H8.71119C8.71119 15.1165 8.71119 15.4225 8.71119 15.7438C9.49907 15.7438 9.95803 15.7438 10.7612 15.7438C10.7612 16.1415 10.7612 16.5546 10.7612 16.96C9.50672 16.96 8.5888 16.96 7.34961 16.96C7.34961 15.1701 7.34961 13.3801 7.34961 11.6055C8.5888 11.6055 9.43788 11.6055 10.6924 11.6055Z" fill="#FFEA94"/>
<path d="M15.2345 16.96C14.7755 16.96 14.3165 16.96 13.8652 16.96C13.8652 15.1777 13.8652 13.3954 13.8652 11.6055C14.6378 11.6055 15.4333 11.6055 16.2212 11.6055C18.7838 11.6131 18.7838 15.5908 16.2212 15.5908H15.2345V16.96ZM16.2136 14.3592C16.9632 14.3592 17.0091 12.837 16.2136 12.8294C15.8923 12.8217 15.5481 12.8294 15.2345 12.8294C15.2345 13.2654 15.2345 13.9232 15.2345 14.3592H16.2136Z" fill="#FFEA94"/>
<path d="M16.085 6.79492C16.3169 6.7884 16.536 6.91832 16.6396 7.13281L17.2979 8.49414C17.4412 8.79118 17.3165 9.14839 17.0195 9.29199C16.7224 9.43559 16.3653 9.31084 16.2217 9.01367L16.0742 8.70996L12.791 14.1221L14.5273 16.7529V16.96H13.0889L12.0713 15.2773H12.0254L11.001 16.96H9.57031V16.7529L11.2988 14.1221L9.75391 11.8115V11.6055H11.1533L12.0254 12.9971H12.0645L14.8623 8.25L14.7363 8.27539C14.4128 8.34016 14.0981 8.13017 14.0332 7.80664C13.9689 7.48349 14.1779 7.16955 14.501 7.10449L15.9844 6.80664L16.085 6.79492Z" fill="#FFEA94"/>
<path d="M12.9672 11.005C13.0403 11.0357 13.1324 11.0525 13.1956 11.1017C13.2982 11.1815 13.29 11.3473 13.1426 11.3604C13.0296 11.3705 12.7843 11.3722 12.673 11.3601C12.5384 11.3455 12.5252 11.2204 12.5281 11.1119C12.5327 10.9319 12.5542 10.7276 12.5675 10.5456C12.5742 10.455 12.5898 10.3642 12.5954 10.2735C12.5415 10.2471 12.1199 10.1419 12.0991 10.1568C12.0655 10.2521 12.0239 10.3447 11.9822 10.4367C11.8053 10.8268 11.629 11.2175 11.4445 11.6039V11.6198C11.5235 11.7312 11.5681 12.0331 11.3531 11.9957C11.272 11.9816 11.1169 11.803 11.066 11.7337C11.048 11.7093 11.0165 11.6705 11.0191 11.6404C11.1024 11.3641 11.1908 11.0893 11.2669 10.8108C11.4227 10.2416 11.5108 9.65346 11.7227 9.10126L11.6366 9.168C11.4509 9.33981 11.2979 9.54083 11.132 9.73106C11.155 9.81819 11.1649 9.89178 11.1263 9.97662C11.0496 10.145 10.7735 10.1075 10.7315 9.93743C10.7031 9.82252 10.7688 9.73571 10.8219 9.63898C10.9878 9.33737 11.3434 8.78864 11.6295 8.60997C11.9646 8.40069 12.2018 8.50955 12.5546 8.47846C12.9482 8.44375 13.2022 8.05179 13.4106 7.7579C13.5236 7.5986 13.6416 7.37933 13.7608 7.23663C13.7963 7.19405 13.8296 7.17036 13.8808 7.20893C13.9774 7.28157 13.8283 7.41175 13.8042 7.49062C13.8735 7.56334 13.9793 7.65511 13.9456 7.769C13.9276 7.83 13.82 7.96695 13.7781 8.0255C13.5487 8.34702 13.2987 8.66822 12.9591 8.87773C12.8938 9.16674 12.82 9.45425 12.7258 9.735C12.8377 9.81937 13.1439 9.88194 13.1676 10.0439C13.2001 10.267 13.0068 10.693 12.9698 10.9348C12.9662 10.9582 12.9637 10.9815 12.9672 11.0052V11.005Z" fill="#FFEA94"/>
<path d="M12.4552 7.25537C12.7318 7.23419 13.0037 7.44591 13.0276 7.72925C13.0727 8.26304 12.4096 8.52788 12.0783 8.1179C11.8055 7.78041 12.0295 7.28787 12.4553 7.25529L12.4552 7.25537Z" fill="#FFEA94"/>
<path d="M14.6354 6.5171C14.3957 6.56735 14.2083 6.75471 14.1581 6.99442C14.1519 7.02384 14.1259 7.04492 14.0959 7.04492C14.0658 7.04492 14.0398 7.02384 14.0337 6.99441C13.9834 6.75471 13.7961 6.56736 13.5564 6.51712C13.5269 6.51095 13.5059 6.48499 13.5059 6.45492C13.5059 6.42485 13.5269 6.39889 13.5564 6.39272C13.7961 6.34247 13.9834 6.15512 14.0337 5.91542C14.0398 5.88599 14.0658 5.86491 14.0959 5.86491C14.1259 5.86491 14.1519 5.88599 14.1581 5.91542C14.2083 6.15512 14.3957 6.34247 14.6354 6.39271C14.6648 6.39888 14.6859 6.42483 14.6859 6.45491C14.6859 6.48498 14.6648 6.51094 14.6354 6.5171Z" fill="#FFEA94"/>
<path d="M14.7282 5.70702C14.6153 5.73069 14.527 5.81896 14.5033 5.93191C14.4971 5.96134 14.4712 5.98242 14.4411 5.98242C14.411 5.98242 14.3851 5.96135 14.3789 5.93191C14.3552 5.81897 14.267 5.7307 14.154 5.70703C14.1246 5.70086 14.1035 5.6749 14.1035 5.64483C14.1035 5.61476 14.1246 5.5888 14.154 5.58263C14.267 5.55896 14.3552 5.47068 14.3789 5.35774C14.3851 5.32831 14.411 5.30723 14.4411 5.30723C14.4712 5.30723 14.4971 5.3283 14.5033 5.35774C14.527 5.47068 14.6153 5.55896 14.7282 5.58263C14.7576 5.5888 14.7787 5.61475 14.7787 5.64483C14.7787 5.6749 14.7576 5.70085 14.7282 5.70702Z" fill="#FFEA94"/>
<path d="M15.3649 6.14357C15.2122 6.17557 15.0929 6.29488 15.0609 6.44753C15.0547 6.47696 15.0288 6.49805 14.9987 6.49805C14.9686 6.49805 14.9427 6.47697 14.9365 6.44754C14.9045 6.29488 14.7852 6.17557 14.6325 6.14357C14.6031 6.13741 14.582 6.11145 14.582 6.08138C14.582 6.05131 14.6031 6.02535 14.6325 6.01918C14.7852 5.98718 14.9045 5.86787 14.9365 5.71521C14.9427 5.68578 14.9686 5.6647 14.9987 5.6647C15.0288 5.6647 15.0547 5.68578 15.0609 5.71521C15.0929 5.86787 15.2122 5.98718 15.3649 6.01917C15.3943 6.02535 15.4154 6.0513 15.4154 6.08137C15.4154 6.11144 15.3943 6.1374 15.3649 6.14357Z" fill="#FFEA94"/>
</g>
<defs>
<clipPath id="clip0_559_13253">
<rect width="24" height="24" fill="white"/>
</clipPath>
<clipPath id="clip1_559_13253">
<rect width="24" height="24" fill="white"/>
</clipPath>
</defs>
</svg>
