<svg width="138" height="150" viewBox="0 0 138 150" fill="none" xmlns="http://www.w3.org/2000/svg">
<path d="M42.5435 81.6855C42.5435 86.7479 42.5435 92.005 42.5435 97.2621C32.4187 97.2621 27.3563 97.2621 17.3289 97.2621V106.9H40.499C40.499 112.06 40.499 117.22 40.499 122.379H17.3289C17.3289 126.371 17.3289 130.265 17.3289 134.354C27.3563 134.354 33.1975 134.354 43.4197 134.354C43.4197 139.416 43.4197 144.673 43.4197 149.833C27.4537 149.833 15.7713 149.833 0 149.833C0 127.052 0 104.272 0 81.6855C15.7713 81.6855 26.5775 81.6855 42.5435 81.6855Z" fill="#01004F"/>
<path d="M100.329 149.833C94.4874 149.833 88.6462 149.833 82.9023 149.833C82.9023 127.15 82.9023 104.466 82.9023 81.6855C92.735 81.6855 102.86 81.6855 112.887 81.6855C145.501 81.7829 145.501 132.407 112.887 132.407H100.329V149.833ZM112.79 116.733C122.331 116.733 122.915 97.3595 112.79 97.2621C108.701 97.1648 104.32 97.2621 100.329 97.2621C100.329 102.811 100.329 111.184 100.329 116.733H112.79Z" fill="#01004F"/>
<path d="M110.183 20.5537C113.478 20.0364 116.745 21.7326 118.207 24.7588L126.581 42.0869C128.408 45.8689 126.824 50.4165 123.042 52.2441C119.26 54.0715 114.711 52.4871 112.884 48.7051L111.025 44.8594L69.2354 113.714L91.335 147.203V149.832H73.0322L60.085 128.414H59.5L46.4551 149.832H28.25V147.203L50.252 113.714L30.5869 84.3125V81.6846H48.4023L59.5 99.4023H59.9873L95.6006 38.9863L93.9863 39.3105C89.8679 40.1366 85.8594 37.467 85.0332 33.3486C84.2072 29.2303 86.8759 25.2218 90.9941 24.3955L109.864 20.6104L110.183 20.5537Z" fill="#EAAD20"/>
<path d="M71.477 74.0508C72.4076 74.4415 73.5791 74.6559 74.3844 75.2819C75.6893 76.2966 75.5848 78.4072 73.7095 78.5745C72.2712 78.7027 69.1488 78.7247 67.7334 78.5705C66.0194 78.3842 65.8522 76.7925 65.888 75.4111C65.9468 73.1203 66.2205 70.5209 66.3907 68.2039C66.4753 67.051 66.6734 65.895 66.745 64.7411C66.0592 64.4055 60.6933 63.0663 60.4285 63.2556C60.0005 64.4686 59.472 65.6476 58.9414 66.8176C56.6889 71.783 54.4464 76.7554 52.0974 81.6737V81.8761C53.1027 83.2935 53.671 87.135 50.9348 86.6592C49.9026 86.4799 47.9288 84.207 47.2798 83.3255C47.0519 83.015 46.6508 82.5212 46.6836 82.1375C47.7437 78.6216 48.8684 75.1236 49.8379 71.5797C51.8197 64.3354 52.9414 56.8497 55.6388 49.8218L54.543 50.6713C52.179 52.858 50.2321 55.4163 48.1199 57.8374C48.4135 58.9463 48.539 59.8829 48.0473 60.9627C47.0718 63.1053 43.5582 62.6285 43.0227 60.4639C42.6614 59.0014 43.4975 57.8965 44.1743 56.6654C46.2855 52.8269 50.8104 45.8431 54.4524 43.5693C58.7165 40.9058 61.7364 42.2911 66.2264 41.8954C71.2351 41.4537 74.468 36.4653 77.1206 32.7249C78.5579 30.6975 80.0599 27.9068 81.5768 26.0907C82.0297 25.5488 82.4527 25.2473 83.1047 25.7381C84.334 26.6627 82.4368 28.3195 82.1303 29.3232C83.0121 30.2487 84.3579 31.4167 83.9289 32.8662C83.6999 33.6425 82.3303 35.3854 81.7978 36.1307C78.8784 40.2226 75.6963 44.3105 71.3744 46.977C70.5433 50.6553 69.6037 54.3145 68.4043 57.8875C69.8286 58.9613 73.7265 59.7577 74.0271 61.8191C74.4411 64.658 71.9806 70.0801 71.5098 73.1573C71.464 73.4558 71.4322 73.7513 71.477 74.0528V74.0508Z" fill="#01004F"/>
<path d="M64.9757 26.3135C68.4963 26.044 71.9562 28.7386 72.2607 32.3447C72.8341 39.1382 64.3954 42.5089 60.1791 37.2911C56.7073 32.9958 59.558 26.7272 64.9767 26.3125L64.9757 26.3135Z" fill="#01004F"/>
<path d="M92.7152 16.927C89.6645 17.5665 87.28 19.951 86.6406 23.0018C86.562 23.3763 86.2317 23.6445 85.849 23.6445C85.4662 23.6445 85.1359 23.3763 85.0574 23.0017C84.4179 19.951 82.0334 17.5666 78.9827 16.9271C78.6082 16.8486 78.3398 16.5183 78.3398 16.1355C78.3398 15.7528 78.6081 15.4225 78.9827 15.344C82.0334 14.7044 84.4178 12.32 85.0573 9.26929C85.1358 8.89474 85.4661 8.62641 85.8488 8.62641C86.2315 8.62641 86.5619 8.89469 86.6404 9.26929C87.2799 12.32 89.6645 14.7044 92.7152 15.3438C93.0897 15.4223 93.3581 15.7526 93.3581 16.1354C93.358 16.5181 93.0897 16.8485 92.7152 16.927Z" fill="url(#paint0_linear_581_19269)"/>
<path d="M93.8957 6.6102C92.4583 6.91146 91.3349 8.03491 91.0335 9.47236C90.955 9.8469 90.6247 10.1152 90.242 10.1152C89.8593 10.1152 89.5289 9.847 89.4504 9.4724C89.149 8.03501 88.0255 6.91156 86.5882 6.61025C86.2136 6.53175 85.9453 6.20139 85.9453 5.81868C85.9453 5.43597 86.2136 5.10561 86.5882 5.02711C88.0255 4.7258 89.149 3.6023 89.4503 2.1649C89.5288 1.79035 89.8591 1.52202 90.2419 1.52202C90.6246 1.52202 90.9549 1.79025 91.0334 2.1649C91.3348 3.6023 92.4583 4.72575 93.8957 5.02706C94.2702 5.10556 94.5386 5.43592 94.5386 5.81863C94.5386 6.20134 94.2703 6.53165 93.8957 6.6102Z" fill="url(#paint1_linear_581_19269)"/>
<path d="M101.993 12.1779C100.05 12.5852 98.5312 14.1038 98.1239 16.0466C98.0454 16.4211 97.7151 16.6895 97.3324 16.6895C96.9497 16.6895 96.6193 16.4212 96.5408 16.0466C96.1335 14.1038 94.615 12.5853 92.6722 12.178C92.2976 12.0995 92.0293 11.7692 92.0293 11.3865C92.0293 11.0038 92.2976 10.6735 92.6722 10.5949C94.615 10.1876 96.1335 8.66912 96.5407 6.72628C96.6192 6.35173 96.9495 6.0834 97.3323 6.0834C97.715 6.0834 98.0453 6.35163 98.1238 6.72628C98.5312 8.66912 100.05 10.1876 101.992 10.5948C102.367 10.6734 102.635 11.0037 102.635 11.3864C102.635 11.7691 102.367 12.0994 101.993 12.1779Z" fill="url(#paint2_linear_581_19269)"/>
<defs>
<linearGradient id="paint0_linear_581_19269" x1="85.849" y1="8.62641" x2="85.849" y2="23.6445" gradientUnits="userSpaceOnUse">
<stop stop-color="#EAAD20"/>
<stop offset="1" stop-color="white"/>
</linearGradient>
<linearGradient id="paint1_linear_581_19269" x1="90.2419" y1="1.52202" x2="90.2419" y2="10.1152" gradientUnits="userSpaceOnUse">
<stop stop-color="#EAAD20"/>
<stop offset="1" stop-color="white"/>
</linearGradient>
<linearGradient id="paint2_linear_581_19269" x1="102.635" y1="11.3864" x2="92.0293" y2="11.3864" gradientUnits="userSpaceOnUse">
<stop stop-color="#EAAD20"/>
<stop offset="1" stop-color="white"/>
</linearGradient>
</defs>
</svg>
